<?xml version="1.0" encoding="UTF-8"?>
<svg id="svg9" xmlns="http://www.w3.org/2000/svg" version="1.1" xmlns:inkscape="http://www.inkscape.org/namespaces/inkscape" xmlns:sodipodi="http://sodipodi.sourceforge.net/DTD/sodipodi-0.dtd" xmlns:svg="http://www.w3.org/2000/svg" xmlns:xlink="http://www.w3.org/1999/xlink" viewBox="0 0 1500 1500">
  <!-- Generator: Adobe Illustrator 29.0.0, SVG Export Plug-In . SVG Version: 2.1.0 Build 186)  -->
  <defs>
    <style>
      .st0 {
        fill: url(#linear-gradient3);
      }

      .st0, .st1, .st2, .st3, .st4, .st5, .st6, .st7 {
        stroke: #000;
        stroke-miterlimit: 10;
        stroke-width: 2px;
      }

      .st1 {
        fill: url(#linear-gradient1);
      }

      .st2 {
        fill: #f9e79f;
      }

      .st3 {
        fill: url(#linear-gradient2);
      }

      .st4 {
        fill: url(#linear-gradient);
      }

      .st5 {
        fill: url(#linear-gradient5);
      }

      .st6 {
        fill: url(#linear-gradient4);
      }

      .st7 {
        fill: #d2b4de;
      }
    </style>
    <linearGradient id="linear-gradient" x1="0" y1="1301.8" x2="400" y2="1301.8" gradientTransform="translate(475.8 2276.5) scale(1.4 -1.4)" gradientUnits="userSpaceOnUse">
      <stop offset="0" stop-color="#d2b4de"/>
      <stop offset="1" stop-color="#f9e7a0"/>
    </linearGradient>
    <linearGradient id="linear-gradient1" x1="0" y1="1324.7" x2="400" y2="1324.7" gradientTransform="translate(475.8 2276.5) scale(1.4 -1.4)" gradientUnits="userSpaceOnUse">
      <stop offset="0" stop-color="#d2b4de"/>
      <stop offset="1" stop-color="#f9e7a0"/>
    </linearGradient>
    <linearGradient id="linear-gradient2" x1="0" y1="1453.8" x2="400" y2="1453.8" gradientTransform="translate(475.8 2276.5) scale(1.4 -1.4)" gradientUnits="userSpaceOnUse">
      <stop offset="0" stop-color="#d2b4de"/>
      <stop offset="1" stop-color="#f9e7a0"/>
    </linearGradient>
    <linearGradient id="linear-gradient3" x1="0" y1="1449.3" x2="400" y2="1449.3" gradientTransform="translate(475.8 2276.5) scale(1.4 -1.4)" gradientUnits="userSpaceOnUse">
      <stop offset="0" stop-color="#d2b4de"/>
      <stop offset="1" stop-color="#f9e7a0"/>
    </linearGradient>
    <linearGradient id="linear-gradient4" x1="0" y1="1420.9" x2="400" y2="1420.9" gradientTransform="translate(475.8 2276.5) scale(1.4 -1.4)" gradientUnits="userSpaceOnUse">
      <stop offset="0" stop-color="#d2b4de"/>
      <stop offset="1" stop-color="#f9e7a0"/>
    </linearGradient>
    <linearGradient id="linear-gradient5" x1="0" y1="1222.1" x2="400" y2="1222.1" gradientTransform="translate(475.8 2276.5) scale(1.4 -1.4)" gradientUnits="userSpaceOnUse">
      <stop offset="0" stop-color="#d2b4de"/>
      <stop offset="1" stop-color="#f9e7a0"/>
    </linearGradient>
  </defs>
  <sodipodi:namedview id="namedview13" bordercolor="#000000" borderopacity="0.25" inkscape:deskcolor="#d1d1d1" inkscape:pagecheckerboard="0" inkscape:pageopacity="0.0" inkscape:showpageshadow="2" pagecolor="#ffffff"/>
  <g id="g13">
    <g id="g10">
      <g id="g9">
        <g id="g8">
          <g id="g2">
            <path id="i1" class="st4" d="M513.9,221.5c-14.5,4-25.5,13.2-32.5,27.3l-4.5,9.2-.5,43.3c-.3,23.9-.5,127.4-.5,230.3v187l2.5,7.1c5.1,15.2,16.3,27.6,30.5,33.7l8.1,3.5,230.2.3c154.4.2,231.9-.1,235.4-.9,13.7-2.9,27.8-13.8,34.6-26.7,7.8-14.9,7.2,4.1,7.2-244.3s-.3-225.4-1.2-229.5c-4-19.3-20.4-36.5-38.9-40.7-6.9-1.6-130.3-1.5-134.9,0-2.1.8-3.9,2.4-4.5,3.9-1.4,3.7-1.3,126.2.1,131.3.9,3,4.6,7.2,17,18.9,8.6,8.2,17.2,16.9,18.9,19.1,2.9,4,3,4.8,3,16s.4,12.6,1.5,14.7c.9,1.6,8.5,9.4,17.1,17.4,8.5,8,31.9,30.4,52,49.6l36.4,35.1v12.1c0,6.6-.3,12.3-.6,12.8-.4.3-9.5-7.8-20.3-18-10.7-10.3-22.7-21.5-26.6-25-11.3-10.2-62.6-59.1-70.4-67.2l-7.2-7.5-.8-8.3c-.4-4.6-.4-10.9,0-14l.8-5.6-18.6-17.9c-10.3-9.8-19.5-19.3-20.6-21.1-1.9-3-2.1-6.1-2.1-71.5s-.3-69.2-1.2-70.7c-2.8-5.2-1.9-5.2-102.6-5.2h-94.2l-3.1,3.1-3.1,3.1v33.4c.2,18.3.5,34.5,1,35.9.3,1.4,5.4,6.8,11.1,11.9,10.6,9.4,48.3,44.8,81,76.2,9.9,9.5,19.1,17.9,20.5,18.7,1.4.8,5.7,1.3,9.7,1.4,6.4,0,7.7.3,11.8,3.5,2.5,1.9,6.1,5.4,7.9,7.7l3.4,4.2.5,22.3c.5,20.7.8,22.6,2.9,25.6,2.7,3.8,18.2,17.9,21.6,19.8,1.5.9,8.3,1.3,18.4,1.3,20.1,0,21.3.5,36.7,15.3,6.4,6.2,20.4,19.2,31.1,29.2,10.8,9.9,20.7,19.7,22.2,21.6,2.5,3.2,2.7,4.9,3.2,17.7.6,16.1,1.4,17.9,8.9,20,4.1,1.1,13.7,9.6,49.8,44.3l10.5,10.2v12.6c0,6.9-.4,13-1.1,13.3-.5.3-12.9-10.7-27.2-24.6-35.6-34.3-39.6-37.7-45.9-39.9-5.5-1.9-11.1-7.6-13.3-13.3-.6-1.6-1.1-8.3-1.1-15.1s-.3-13.1-.6-14c-1-2.5-58.7-55.7-61.7-56.8-1.4-.5-10.6-1-20.4-1h-17.8l-13.4-12.4c-7.3-6.9-15.1-14.8-17.2-17.7l-3.9-5.3v-43.2l-3.8-3.4c-3.5-3-4.5-3.4-10.9-3.4s-8.3-.6-10.3-1.6c-1.7-1-13-11.2-25.1-22.9-12-11.7-34.5-32.9-49.9-47.2s-32.2-30-37.3-34.9l-9.2-8.9-.8-10.1c-.3-5.5-.8-23.8-.8-40.5v-30.4c-.1,0-3.5-2.8-3.5-2.8-2.8-2.4-4.3-2.8-10.7-2.8s-7.9.4-10.4,2.5l-2.9,2.5-.5,51.3c-.4,43.6-.2,51.8,1.1,55,1.6,3.8,23.8,25.4,28.6,28,1.3.6,7.2,1.2,13.5,1.2,9.6,0,11.7.3,15,2.5,7,4.3,73.3,69.1,75.5,73.8,1.7,3.6,2.2,6.6,2.2,16.1v11.8l10.6,10.4c12.5,12.3,46.8,43.9,51.4,47.2,2.9,2.3,4.4,2.5,17.7,2.5s14.8.2,17.8,2.4c6.5,4.4,19.1,16.2,18.5,17.2-.3.5-13,1-28.1,1s-28.4-.3-31-1.5c-5.8-2.4-71.8-64.1-74.9-70-1.1-2.1-1.5-6.7-1.5-15.5v-12.4l-5.6-5.7c-3.1-3.1-18.5-17.9-34-33l-28.4-27.2h-11.3c-7.7,0-12.6-.5-15.2-1.6-4-1.6-30.4-26.3-36.9-34.4l-3.6-4.3v-113.4l-3.1-3.1-3.1-3.1h-14.5c-8.1.1-16.5.8-19.5,1.6M753,304.9c0,51.4.2,57.1,1.8,58.9,1.5,1.6,3.5,1.9,13.2,1.9s12,.4,14.3,1.9c4.9,3.2,29.2,26.6,31.3,30,1.8,3,2.1,5.5,2.1,22.5v19l3.7,4.1,3.7,4,13.4.5c10.8.4,13.9,1,16.8,2.7,6.5,4.1,98.8,91.9,101,96,.6,1.3,1.3,7.2,1.4,13.3.2,13.7.9,14.8,16.4,29.2,6.4,5.8,13.3,12.2,15.2,14l3.5,3.5v12.3c0,6.8-.3,12.6-.6,13.1-1,.9-48.8-44.3-51.3-48.4-1.6-2.6-2.1-5.4-2.1-14.4s-.4-12-1.1-13.1c-.9-1.8-11.1-11.6-72.7-69.6l-20.2-19.1h-11.3c-13.3,0-16.6-1.1-23.8-7.7-9.7-9-9.6-8.6-10.3-31.7l-.5-20.4-11.8-11-11.8-11.1-11.6-.4c-10.8-.4-11.8-.6-16.6-4-2.8-1.9-6.5-5.5-8.3-7.9l-3.1-4.4v-50.4c.1-37.4.4-51,1.4-52.7,2.4-4.2,16-18.7,17.1-18.2.5.4,1,24.1,1,57.5M921.6,285.4v37.4l6.3,6.1c3.4,3.4,18.7,17.9,33.9,32.4,15.2,14.5,28,27,28.3,27.9,1.2,3,.8,25.2-.5,25.2s-7.6-6.2-15.3-13.8c-7.9-7.6-25-23.8-38.1-36.1-13.1-12.3-26-24.7-28.9-27.8l-5.1-5.4v-64.2l2.9-3.9c5-6.6,14.6-16.3,15.6-15.7.5.3,1,17.4,1,37.9M883,255.2c.4,4.1.8,25.1.8,46.7v39.3l6.3,6.1c3.4,3.4,26,25.3,50.3,48.6,24.3,23.5,45.6,44.3,47.3,46.3,3,3.6,3.1,3.9,3.1,15.5s-.3,11.9-1.3,11.9c-2.3,0-123.2-116.3-124.7-119.8-.3-1-.9-19.7-1-41.5l-.3-39.9,4.9-6.1c5.8-7.3,12.3-14.3,13.4-14.3s1,3.2,1.3,7.2M528.2,302.3v48.8c-.1,0,20.2,19.9,20.2,19.9,26.4,25.7,26.8,26,35.9,26s8.1.5,10.8,2.3c2.1,1.3,11.1,9.5,20.2,18.4l16.4,16.1h8.2c11.5,0,17.7,3.8,21.6,13.2,2.5,5.7,2.2,10.5-1.1,16.9-4.3,8.8-13.2,12.6-22.9,10.1-8.4-2.4-12.4-7.3-14.7-18.5-.5-2.8-31.9-34.8-36.5-37.5-1.4-.8-5.6-1.3-9.3-1.4-3.9,0-8.4-.8-10.3-1.6-1.9-1-15.8-13.7-30.8-28.4l-27.3-26.7v-44.3c.1,0,.1-44.4.1-44.4l6.6-7.5c7.3-8.4,10.8-11.5,12-10.7.4.3.9,22.6.9,49.4M974.1,257.1c5.1,2.1,11.9,8.6,14.4,13.9,4.6,9.4,1.8,23.8-5.9,31.1-7.5,6.9-20.5,8.4-30.5,3.5-16.6-8.2-20.3-30.7-7-42.7,5.4-4.9,6.8-5.6,12.5-6.9,6.1-1.4,11.1-1.1,16.5,1.1M694.1,261.7c7.3,2.5,14.8,10.1,17.3,17.5,4.8,14.4-2.8,30.5-16.4,35.3-22.8,8.1-45.7-15.8-35.9-37.4,6.3-14,20.7-20.4,35-15.5M798.7,308.2c1.7,1,4.8,3.7,6.6,5.9,3,3.9,3.4,4.9,3.4,12.1s-.3,8.2-3.4,12.1c-4.6,5.7-9.2,8.1-15.6,8.1-19.2,0-28.5-21.4-15.1-34.8,2.4-2.4,5.8-4.8,7.8-5.3,4.6-1.4,12.3-.5,16.3,1.8M990.5,342.9c.1,6.8-.1,12.8-.6,13.3-1.3,1.3-22.9-19.3-22.9-21.7,0-3.8,2.3-4.5,13-4.2l10.3.3.3,12.3M526.8,417.3c21.7,20.7,20,19.8,34.4,19.8s12.2.1,16.9,3.1c2.6,1.7,7.7,6.1,11.1,9.6,5,5.2,6.1,6.8,4.8,7.2-1,.4-13.1.5-27,.3l-25.4-.3-4.2-3.2c-2.3-1.7-9.7-8.4-16.3-15l-12.2-11.8v-11.8c0-10.1.2-11.7,1.7-11.7s8.3,6.2,16.3,13.7M607.6,481.8c1.9.9,6.2,3.6,9.2,5.9l5.6,4.4h51.3l4.2,2.8c4.1,2.8,15.6,13.4,52.8,49.1,10.2,9.6,20.3,18.9,22.6,20.6l4.2,3.1h42c39.2,0,42.3.1,46,2.1,17.5,9,18.2,32.1,1.2,41-11.6,6.1-25.4-1.2-27.3-14.3-.5-3.5-1.6-5.6-3.6-7.1-2.6-2.1-4.3-2.2-33.9-2.2s-32.3-.4-33.7-1c-1.5-.5-19.7-17.1-40.5-36.7-20.9-19.7-39-36-40.4-36.2-1.4-.3-13.5-.8-26.9-1-26.7-.4-25.5-.1-35.1-7.8l-4-3.2-46-.5-46-.5-.3-8.5c-.2-4.8-.1-9.2.2-10.1.9-2.2,93.2-2.1,98.4.1M611.1,527.1c5.1,3.2,9,7.8,9,10.5s-.9,2.9-1.8,4.2q-1.9,2.3-55.4,2.1l-53.5-.3-.3-8.6c-.2-6.4.1-8.9,1.2-9.7,1-.6,18.3-1.1,49-1h47.5c0,.1,4.4,2.9,4.4,2.9M676.3,553.7c2.6,1.7,20.1,17.8,38.8,35.8s36,34,38.3,35.8l4.2,3.1h70.7c63.1,0,71,.2,74,1.7,3.5,1.8,17.7,15,62.7,58,27.3,26.2,27.9,27,21.3,32.5-5.4,4.5-10.4,3.9-17.9-2.4-3.5-2.9-7-6.2-7.9-7.2-2.1-2.6-54.7-51.5-61.7-57.6l-5.5-4.5h-70.2c-60.4,0-70.7-.2-73.7-1.6-1.8-.9-15.1-12.8-29.4-26.3-41.7-39.3-52.7-49.5-55.1-50.8-1.6-.9-5.8-1-13-.5-9.7.6-10.9,1-13.6,3.7-4.1,4-4.2,10.3-.2,14.9,2.5,3,3.5,3.4,8.6,3.4s6.2.2,12.6,6.2c17.1,15.6,50.5,49.1,49.9,50-.3.6-5.7,1.1-12.3,1.1-13.9,0-11.5,1.5-34.1-20.3-16.2-15.7-18.8-17.6-27.2-19.7-6.5-1.6-14.6-9.9-17.1-17.4-2.4-7.1-1.7-18.2,1.4-24.2,2.6-5.2,10.7-13,15.7-15.1,2.4-1.1,8.3-1.5,19.8-1.6,16.1,0,16.2,0,21.1,3.1M599.5,568.5c.6,1.5.8,5.4.4,8.6-1.2,9.5,1.1,9.2-48.1,8.9l-42.6-.3-.3-8.5c-.2-4.8-.1-9.2.2-10.1.4-1.1,8.9-1.4,45-1.4h44.3l1.1,2.8M600.9,611.4c1.6.8,16.1,13.9,32.2,29.4,16.1,15.5,30.4,28.6,31.7,29.4,1.7,1,27,1.3,107.6,1.4,68.2,0,106.8.4,109.4,1.1,4.2,1.2,9.2,5.5,43.1,37.7,10.9,10.4,20,19.5,20.2,20.3.4,1.8-22.6,2.1-26,.1-1.3-.6-10.9-9.2-21.3-18.9-13.4-12.5-20-17.9-22.7-18.7-2.3-.5-47-1-108.6-1s-105.8-.3-107.9-1.1c-3.1-1.2-11.5-9-42.9-39.7-10.4-10.2-20.1-19.1-21.6-19.9-2.1-1.2-11.8-1.5-43-1.7-22.2-.2-40.7-.6-41.3-1-1.2-.8-1.5-17.1-.3-18.2,1.3-1.4,88.2-.8,91.4.6M577.6,655c4.8,2.7,39.3,35.1,38.9,36.4-.2.8-4.9,1.2-12.3,1.2-13.6-.1-13,.2-25.5-11.2-4.5-4.2-8.4-7.8-8.6-7.9-.1-.1-13.8-.4-30.5-.8l-30.3-.6-.3-8c-.2-4.4-.1-8.6.2-9.5.4-1.1,6.8-1.4,32.7-1.4s32.6.2,35.7,1.8M852.8,711.6c5.3,1.5,23,17.9,21.2,19.8-1.4,1.4-246.4,1-250.1-.4-2.6-1-21.2-17.3-21.2-18.6s31.2-1,69.5-1.2c38.1-.1,93.5-.3,122.9-.5,35.4-.1,54.9.2,57.7,1M567.6,713.6c3.2,1.9,18.2,15,18.7,16.3.6,1.6-5.2,2.2-23.9,2.2s-20.1-.4-21.6-1.3c-4-2.1-20.2-17.3-19.6-18.3.3-.5,10.2-1,21.8-1,18.8,0,21.7.2,24.5,2.1"/>
          </g>
          <g id="g3">
            <path id="i2" class="st1" d="M640.8,457.1c-1.6,3.2-1.6,3.6.4,6.3,4.1,5.6,13.2,3.5,13.2-3.1s-3.1-6.5-7.9-6.5-4.2.5-5.7,3.4"/>
          </g>
          <g id="g4">
            <path id="i3" class="st3" d="M969.4,274.3c-6.4,4.3-6.5,11.7-.2,17.2,3.4,2.9,4.4,3.2,8.2,2.8,11.6-1.6,14.2-15.5,3.9-20.7-4.3-2.3-7.8-2.1-11.9.8"/>
          </g>
          <g id="g5">
            <path id="i4" class="st0" d="M682.8,279.4c-5,3.9-5.9,8.9-3,14.9,4.4,9.2,17.1,9.1,21.5-.2,1.5-3.4,1.6-4.6.6-8.1-1.7-5.7-5.7-8.5-11.9-8.5s-5.8.8-7.2,1.9"/>
          </g>
          <g id="g6">
            <path id="i5" class="st6" d="M791.3,323.2c-3.2,3.5-3,7.7.4,10.4,3.8,3,7.5,2.8,10.7-.4,3.5-3.5,3.4-5.4-.4-9.3-3.8-3.8-7.6-4-10.7-.6"/>
          </g>
          <g id="g7">
            <path id="i6" class="st5" d="M842.8,595.3c-2.8,3.1-2.4,8.3,1,10.9,3.8,2.9,5.9,2.8,9.5-.4s3.6-6.4.1-9.7c-3.1-3.2-8.1-3.6-10.6-.8"/>
          </g>
        </g>
      </g>
    </g>
    <g id="g11">
      <path id="text10" class="st7" d="M361.8,1010.4c0,5.6-.7,10.6-2.2,15.1-1.4,4.4-3.2,8.4-5.6,11.8s-5,6.3-8.2,8.7-6.4,4.4-9.7,5.9-6.8,2.7-10.2,3.4c-3.4.7-6.6,1.1-9.7,1.1h-109.3v-28.3h109.3c5.4,0,9.7-1.6,12.6-4.8,3.1-3.2,4.6-7.5,4.6-12.9s-.4-5-1.2-7.2-2-4.1-3.5-5.7c-1.5-1.6-3.3-2.8-5.4-3.7-2.1-.9-4.5-1.3-7.1-1.3h-65.1c-4.6,0-9.5-.8-14.8-2.4-5.3-1.7-10.2-4.3-14.8-8-4.5-3.6-8.3-8.4-11.3-14.3-3-5.9-4.5-13.1-4.5-21.6s1.5-15.6,4.5-21.5c3.1-5.9,6.8-10.6,11.3-14.3,4.6-3.7,9.5-6.4,14.8-8,5.3-1.7,10.2-2.5,14.8-2.5h96.4v28.3h-96.4c-5.4,0-9.6,1.6-12.6,4.9-3,3.3-4.5,7.6-4.5,13s1.5,9.8,4.5,13c3.1,3.1,7.3,4.7,12.6,4.7h65.4c3.1,0,6.3.5,9.7,1.3,3.4.7,6.8,1.9,10.1,3.5,3.4,1.6,6.6,3.6,9.7,6.1,3.1,2.4,5.7,5.3,8.1,8.7,2.4,3.4,4.3,7.3,5.7,11.8s2.1,9.4,2.1,15h0ZM512.7,1056.4h-28.3v-65.4c0-3.7-.7-7-2-9.9-1.2-3-2.9-5.5-5.1-7.6s-4.8-3.7-7.7-4.8c-2.9-1.2-6.1-1.7-9.5-1.7h-49.6v89.4h-28.3v-103.7c0-2,.4-3.8,1.1-5.4.7-1.7,1.7-3.2,3.1-4.5,1.3-1.3,2.8-2.3,4.6-3.1s3.6-1.1,5.6-1.1h63.8c3.6,0,7.3.4,11.2,1.2,4,.8,7.9,2.1,11.8,3.9,3.9,1.7,7.6,4,11.1,6.8,3.6,2.7,6.7,6,9.4,9.9,2.8,3.8,4.9,8.3,6.5,13.4,1.6,5.1,2.4,10.8,2.4,17.2v65.4ZM659.1,1017.4c0,3.9-.7,8.2-2.1,12.7-1.4,4.5-3.6,8.7-6.8,12.6-3.1,3.8-7.1,7.1-12.1,9.7-4.9,2.6-11,3.9-18.1,3.9h-51.1c-3.9,0-8.2-.7-12.7-2.1-4.5-1.4-8.7-3.6-12.6-6.6-3.8-3.1-7.1-7.2-9.7-12.1-2.6-5-3.9-11.1-3.9-18.2s.7-8.2,2.1-12.7,3.6-8.8,6.6-12.6c3.1-3.9,7.2-7.2,12.1-9.8,5-2.6,11.1-3.9,18.2-3.9h51.1v27h-51.1c-3.8,0-6.8,1.2-8.9,3.6-2.1,2.3-3.2,5.2-3.2,8.7s1.2,6.6,3.6,8.7c2.5,2,5.4,3.1,8.7,3.1h50.9c3.8,0,6.8-1.2,8.9-3.5s3.2-5.2,3.2-8.7v-39.5c0-3.7-1.2-6.6-3.5-8.8-2.3-2.2-5.1-3.3-8.6-3.3h-62.2v-26.9h62.2c3.9,0,8.1.7,12.6,2.1,4.6,1.4,8.8,3.6,12.6,6.8,3.9,3.1,7.2,7.1,9.8,12.1,2.6,4.9,3.9,11,3.9,18.1v39.8ZM813.1,1016.7c0,4.9-.6,9.3-1.9,13.2-1.2,3.8-2.9,7.3-4.9,10.2-2,2.9-4.4,5.4-7.1,7.5-2.7,2-5.5,3.7-8.5,5-2.9,1.3-5.8,2.3-8.8,2.9-3,.6-5.8.9-8.5.9h-51.1v-28.3h51.1c3.8,0,6.6-1,8.5-2.9s2.8-4.8,2.8-8.5v-38.1c0-3.9-1-6.8-2.9-8.7-1.9-1.9-4.7-2.8-8.4-2.8h-50.9c-3.8,0-6.8,1-8.7,2.9-2,1.9-2.9,4.7-2.9,8.4v114.9h-28.3v-114.9c0-4.9.6-9.2,1.9-13.1s2.9-7.2,4.9-10.1c2.1-3,4.5-5.5,7.2-7.5,2.7-2.1,5.5-3.8,8.4-5.1,3-1.3,6-2.3,8.9-2.8,3.1-.7,5.9-1,8.5-1h51.1c4.9,0,9.2.6,13.1,1.9s7.2,2.9,10.1,4.9c3,2,5.5,4.4,7.5,7.1,2.1,2.7,3.8,5.5,5.1,8.5,1.3,2.9,2.3,5.8,2.8,8.8.7,3,1,5.8,1,8.5v38.3ZM980.3,1056.4h-102.2c-2.6,0-5.4-.3-8.5-.9-3-.7-6-1.6-8.9-2.9-2.9-1.3-5.7-3-8.4-5-2.7-2.1-5.1-4.6-7.2-7.5-2-3-3.7-6.4-4.9-10.2-1.2-3.9-1.9-8.3-1.9-13.2v-76.7c0-2.6.3-5.4.9-8.4.7-3.1,1.6-6,2.9-8.9,1.3-3,3-5.8,5.1-8.5s4.6-5,7.5-7.1c3-2.1,6.4-3.8,10.2-5s8.2-1.9,13.1-1.9h102.2v28.3h-102.2c-3.7,0-6.5,1-8.5,2.9s-2.9,4.9-2.9,8.7v76.5c0,3.6,1,6.5,2.9,8.5,2,2,4.9,2.9,8.5,2.9h102.2v28.3ZM1106.3,967h-63.7c-3.8,0-6.8,1-8.7,2.9-2,1.9-2.9,4.7-2.9,8.4v78.1h-28.3v-78.1c0-4.9.6-9.2,1.9-13.1s2.9-7.2,4.9-10.1c2.1-3,4.5-5.5,7.2-7.5,2.7-2.1,5.5-3.8,8.4-5.1,3-1.3,6-2.3,8.9-2.8,3.1-.7,5.9-1,8.5-1h63.9v28.3ZM1230.1,1056.4h-28.3v-78.1c0-3.7-1-6.5-2.9-8.4-2-2-4.9-2.9-8.7-2.9h-36.8v89.4h-28.3v-103.7c0-2,.4-3.8,1.1-5.4.7-1.7,1.7-3.2,3.1-4.5,1.3-1.3,2.8-2.3,4.6-3.1s3.6-1.1,5.6-1.1h51.1c3.9,0,8.1.7,12.6,2.1s8.8,3.6,12.9,6.6v-8.7h38.3c2.7,0,5.5.3,8.5,1,3,.6,5.9,1.5,8.8,2.8,3,1.3,5.8,3,8.5,5.1,2.7,2,5,4.5,7.1,7.5,2,2.9,3.7,6.3,4.9,10.1s1.9,8.2,1.9,13.1v78.1h-28.3v-78.1c0-3.7-.9-6.5-2.8-8.4-1.8-2-4.6-2.9-8.5-2.9h-25.5c.9,3.5,1.4,7.3,1.4,11.3v78.1Z"/>
    </g>
    <g id="g12">
      <path id="text11" class="st2" d="M319,1277.8h-81c-2.1,0-4.3-.2-6.7-.7-2.4-.5-4.7-1.3-7.1-2.3-2.3-1-4.5-2.4-6.7-4-2.1-1.7-4-3.7-5.7-6-1.6-2.4-2.9-5.1-3.9-8.1-1-3.1-1.5-6.6-1.5-10.5v-60.8c0-2.1.2-4.3.7-6.7.5-2.4,1.3-4.8,2.3-7.1,1-2.4,2.4-4.6,4.1-6.7s3.7-4,6-5.6c2.4-1.7,5.1-3,8.1-4s6.5-1.5,10.4-1.5h81v22.5h-81c-2.9,0-5.2.8-6.7,2.3s-2.3,3.9-2.3,6.9v60.6c0,2.9.8,5.1,2.3,6.7,1.6,1.6,3.9,2.3,6.7,2.3h81v22.5ZM464.1,1195.6c0,5.1-.6,9.7-1.9,13.7s-3,7.6-5.2,10.7c-2.1,3.1-4.6,5.7-7.4,7.9s-5.8,4-8.9,5.4c-3.1,1.4-6.2,2.4-9.3,3-3.1.6-6,1-8.8,1l46.9,40.5h-34.7l-46.8-40.5h-16.2v-22.5h50.8c2.8-.2,5.4-.8,7.7-1.7,2.4-1,4.4-2.3,6-3.9,1.7-1.6,3.1-3.5,4-5.8.9-2.3,1.4-4.9,1.4-7.9v-14.2c0-1.3-.2-2.2-.5-2.9-.3-.7-.7-1.2-1.2-1.5-.5-.3-1-.5-1.6-.6-.5,0-1,0-1.5,0h-74.1v101.4h-22.5v-112.6c0-1.6.3-3,.9-4.4s1.4-2.6,2.3-3.6c1-1,2.2-1.8,3.6-2.4,1.4-.6,2.9-.9,4.5-.9h85.3c5,0,9.2.9,12.7,2.8,3.5,1.8,6.2,4.1,8.4,6.8,2.2,2.7,3.7,5.6,4.7,8.8,1,3.2,1.5,6.1,1.5,8.9v14.3ZM630.8,1277.8h-22.6v-73.8l-39.8,70.1c-1,1.8-2.4,3.1-4.1,4.1-1.7.9-3.6,1.4-5.6,1.4s-3.8-.5-5.5-1.4c-1.7-.9-3-2.3-4-4.1l-40-70.1v73.8h-22.5v-114.3c0-2.6.7-4.9,2.2-6.9,1.6-2,3.6-3.4,6-4.1,1.2-.3,2.4-.4,3.6-.3,1.2,0,2.4.3,3.5.8,1.2.4,2.2,1,3.1,1.8.9.7,1.7,1.7,2.3,2.8l51.1,88.9,51.1-88.9c1.3-2.2,3.1-3.7,5.4-4.7,2.4-.9,4.8-1.1,7.3-.4,2.4.7,4.4,2,6,4.1,1.6,2,2.3,4.3,2.3,6.9v114.3ZM813.5,1246.3h-10.1l-.2.3c0,3.7-.5,7-1.5,9.9-.9,2.9-2.2,5.5-3.7,7.8-1.6,2.2-3.4,4.1-5.4,5.7-2.1,1.6-4.2,2.9-6.5,4-2.2,1-4.4,1.7-6.7,2.2-2.2.5-4.4.7-6.4.7h-30.5c-5.4,0-9.9-1-13.7-3-3.7-2-6.9-4.5-9.3-7.5-2.4-3-4.2-6.2-5.4-9.8-1.2-3.5-1.8-6.8-1.9-9.8v-10.5c0-4.5.6-8.5,1.9-11.7,1.3-3.3,3.1-6.2,5.2-8.6-2.5-3.1-4.3-6.5-5.4-10.1-1.1-3.6-1.6-7-1.6-10.2,0-5.6,1-10.3,3-14.2s4.5-7,7.6-9.3c3.1-2.4,6.3-4.1,9.8-5.2,3.6-1.1,6.9-1.6,9.9-1.6h50.6v20.2h-50.6c-1.6,0-3,.3-4.2.8-1.2.5-2.3,1.2-3.2,2.1-.9.9-1.5,2-2,3.3-.5,1.2-.7,2.5-.6,4,0,3.3.9,5.8,2.8,7.6,1.8,1.7,4.3,2.6,7.3,2.6h30.5v20.2h-30.5c-3.2,0-5.6,1-7.4,2.9-1.7,2-2.6,4.4-2.6,7.3v9.7c0,3.1.9,5.6,2.8,7.6,1.9,1.9,4.3,2.9,7.3,2.9h30.3c3.2,0,5.6-1,7.4-2.9,1.8-1.9,2.8-4.3,2.8-7.3s.4-4.9,1.3-7.3,2.2-4.6,3.9-6.5c1.7-2,3.8-3.5,6.3-4.7,2.5-1.2,5.4-1.8,8.7-1.8h10.3v20.3ZM992.6,1227.2h-70.9v-22.6h70.9v22.6ZM1002.7,1277.8h-81c-3.1,0-6.5-.5-10.2-1.6s-7.1-2.9-10.3-5.4c-3.1-2.5-5.7-5.8-7.9-9.8-2.1-4-3.1-9-3.1-14.8v-81c0-1.6.3-3,.9-4.4s1.4-2.6,2.3-3.6c1-1,2.2-1.8,3.6-2.4,1.4-.6,2.9-.9,4.5-.9h101.2v22.5h-90v69.9c0,2.9.8,5.2,2.3,6.7s3.8,2.3,6.8,2.3h80.9v22.5ZM1148.2,1195.6c0,5.1-.6,9.7-1.9,13.7s-3,7.6-5.2,10.7c-2.1,3.1-4.6,5.7-7.4,7.9s-5.8,4-8.9,5.4c-3.1,1.4-6.2,2.4-9.3,3-3.1.6-6,1-8.8,1l46.9,40.5h-34.7l-46.8-40.5h-16.2v-22.5h50.8c2.8-.2,5.4-.8,7.7-1.7,2.4-1,4.4-2.3,6-3.9,1.7-1.6,3.1-3.5,4-5.8.9-2.3,1.4-4.9,1.4-7.9v-14.2c0-1.3-.2-2.2-.5-2.9-.3-.7-.7-1.2-1.2-1.5-.5-.3-1-.5-1.6-.6-.5,0-1,0-1.5,0h-74.1v101.4h-22.5v-112.6c0-1.6.3-3,.9-4.4s1.4-2.6,2.3-3.6c1-1,2.2-1.8,3.6-2.4,1.4-.6,2.9-.9,4.5-.9h85.3c5,0,9.2.9,12.7,2.8,3.5,1.8,6.2,4.1,8.4,6.8,2.2,2.7,3.7,5.6,4.7,8.8,1,3.2,1.5,6.1,1.5,8.9v14.3ZM1294.2,1205.8c0,5.1-.6,9.7-1.9,13.7s-3,7.6-5.2,10.7c-2.1,3.1-4.6,5.7-7.4,7.9s-5.8,4-8.9,5.4c-3.1,1.4-6.2,2.4-9.3,3-3.1.6-6,1-8.8,1h-50.8v-22.5h50.8c2.9-.2,5.5-.8,7.8-1.7,2.4-1,4.4-2.3,6-3.9s3-3.5,3.9-5.8c.9-2.3,1.4-4.9,1.4-7.8v-10.2c-.3-2.8-.9-5.4-1.8-7.8s-2.2-4.4-3.8-6c-1.6-1.7-3.5-3-5.7-3.9-2.2-1-4.8-1.5-7.8-1.5h-50.6c-3,0-5.3.8-6.8,2.3s-2.3,3.8-2.3,6.7v92.3h-22.5v-92.3c0-5.8,1-10.7,3.1-14.7,2.1-4,4.8-7.3,7.9-9.8,3.2-2.5,6.6-4.3,10.3-5.4,3.7-1.2,7.1-1.7,10.2-1.7h50.8c5.1,0,9.6.7,13.6,2,4,1.3,7.6,3,10.6,5.2,3.1,2.1,5.7,4.6,7.9,7.4,2.2,2.8,4,5.8,5.4,8.9,1.4,3.1,2.5,6.2,3.1,9.3.6,3.1,1,6,1,8.8v10.2Z"/>
    </g>
  </g>
</svg>